<mxfile host="app.diagrams.net" modified="2020-10-15T18:26:54.803Z" agent="5.0 (Windows NT 6.1) AppleWebKit/537.36 (KHTML, like Gecko) Chrome/85.0.4183.121 Safari/537.36" etag="-hmF4LKj9YtTZ6Jlz4b_" version="13.8.0" type="github">
  <diagram id="eSWgl5fm6VqWb7-yRT-q" name="Página-1">
    <mxGraphModel dx="2081" dy="1698" grid="1" gridSize="10" guides="1" tooltips="1" connect="1" arrows="1" fold="1" page="1" pageScale="1" pageWidth="827" pageHeight="1169" math="0" shadow="0">
      <root>
        <mxCell id="0" />
        <mxCell id="1" parent="0" />
        <mxCell id="ZF-4dj9gneZ3DAIQ6NbV-64" value="" style="edgeStyle=entityRelationEdgeStyle;fontSize=12;html=1;endArrow=ERzeroToMany;endFill=1;startArrow=ERzeroToMany;exitX=1;exitY=0.5;exitDx=0;exitDy=0;" parent="1" source="6wXl4NRj1OaEJzUZebUB-16" edge="1">
          <mxGeometry width="100" height="100" relative="1" as="geometry">
            <mxPoint x="369" y="210" as="sourcePoint" />
            <mxPoint x="539" y="209.5" as="targetPoint" />
          </mxGeometry>
        </mxCell>
        <mxCell id="ZF-4dj9gneZ3DAIQ6NbV-45" value="" style="edgeStyle=entityRelationEdgeStyle;fontSize=12;html=1;endArrow=ERzeroToMany;endFill=1;startArrow=ERzeroToMany;" parent="1" edge="1">
          <mxGeometry width="100" height="100" relative="1" as="geometry">
            <mxPoint x="100" y="209.74" as="sourcePoint" />
            <mxPoint x="279.17" y="210.21" as="targetPoint" />
          </mxGeometry>
        </mxCell>
        <mxCell id="6wXl4NRj1OaEJzUZebUB-64" value="" style="endArrow=none;html=1;entryX=1;entryY=1;entryDx=0;entryDy=0;" parent="1" target="6wXl4NRj1OaEJzUZebUB-30" edge="1">
          <mxGeometry width="50" height="50" relative="1" as="geometry">
            <mxPoint x="620" y="230" as="sourcePoint" />
            <mxPoint x="620" y="240" as="targetPoint" />
            <Array as="points">
              <mxPoint x="620" y="240" />
            </Array>
          </mxGeometry>
        </mxCell>
        <mxCell id="6wXl4NRj1OaEJzUZebUB-26" value="&lt;font face=&quot;Times New Roman&quot;&gt;Senha&lt;/font&gt;" style="ellipse;whiteSpace=wrap;html=1;" parent="1" vertex="1">
          <mxGeometry x="340" y="390.06" width="40" height="19.94" as="geometry" />
        </mxCell>
        <mxCell id="6wXl4NRj1OaEJzUZebUB-4" value="&lt;font face=&quot;Times New Roman&quot;&gt;ID&lt;/font&gt;" style="ellipse;whiteSpace=wrap;html=1;" parent="1" vertex="1">
          <mxGeometry x="-40" y="200" width="20" height="20" as="geometry" />
        </mxCell>
        <mxCell id="6wXl4NRj1OaEJzUZebUB-2" value="&lt;font face=&quot;Times New Roman&quot;&gt;Cliente&lt;/font&gt;" style="rounded=0;whiteSpace=wrap;html=1;" parent="1" vertex="1">
          <mxGeometry x="20" y="200" width="80" height="20" as="geometry" />
        </mxCell>
        <mxCell id="6wXl4NRj1OaEJzUZebUB-5" value="&lt;font face=&quot;Times New Roman&quot;&gt;Nome&lt;/font&gt;" style="ellipse;whiteSpace=wrap;html=1;" parent="1" vertex="1">
          <mxGeometry x="80" y="240" width="40" height="20" as="geometry" />
        </mxCell>
        <mxCell id="6wXl4NRj1OaEJzUZebUB-6" value="&lt;font face=&quot;Times New Roman&quot;&gt;CPF&lt;/font&gt;" style="ellipse;whiteSpace=wrap;html=1;" parent="1" vertex="1">
          <mxGeometry x="47.5" y="240" width="25" height="20" as="geometry" />
        </mxCell>
        <mxCell id="6wXl4NRj1OaEJzUZebUB-12" value="&lt;font face=&quot;Times New Roman&quot;&gt;Pesquisa&lt;/font&gt;" style="rhombus;whiteSpace=wrap;html=1;" parent="1" vertex="1">
          <mxGeometry x="150" y="170" width="80" height="80" as="geometry" />
        </mxCell>
        <mxCell id="6wXl4NRj1OaEJzUZebUB-16" value="&lt;font face=&quot;Times New Roman&quot;&gt;Produtos&lt;/font&gt;" style="rounded=0;whiteSpace=wrap;html=1;" parent="1" vertex="1">
          <mxGeometry x="280" y="200" width="79.17" height="20" as="geometry" />
        </mxCell>
        <mxCell id="6wXl4NRj1OaEJzUZebUB-18" value="&lt;font face=&quot;Times New Roman&quot;&gt;Administrador&lt;/font&gt;" style="rounded=0;whiteSpace=wrap;html=1;" parent="1" vertex="1">
          <mxGeometry x="280" y="340" width="79.17" height="20" as="geometry" />
        </mxCell>
        <mxCell id="6wXl4NRj1OaEJzUZebUB-25" value="&lt;font face=&quot;Times New Roman&quot;&gt;ID&lt;/font&gt;" style="ellipse;whiteSpace=wrap;html=1;rotation=0;direction=north;" parent="1" vertex="1">
          <mxGeometry x="270" y="380" width="20.83" height="20.06" as="geometry" />
        </mxCell>
        <mxCell id="6wXl4NRj1OaEJzUZebUB-28" value="&lt;font face=&quot;Times New Roman&quot;&gt;Cesta Básica&lt;/font&gt;" style="rounded=0;whiteSpace=wrap;html=1;" parent="1" vertex="1">
          <mxGeometry x="280" y="40" width="80" height="20" as="geometry" />
        </mxCell>
        <mxCell id="6wXl4NRj1OaEJzUZebUB-29" value="&lt;font face=&quot;Times New Roman&quot;&gt;Localidade&amp;nbsp;&lt;/font&gt;" style="rhombus;whiteSpace=wrap;html=1;" parent="1" vertex="1">
          <mxGeometry x="414" y="170" width="80" height="80" as="geometry" />
        </mxCell>
        <mxCell id="6wXl4NRj1OaEJzUZebUB-30" value="&lt;font face=&quot;Times New Roman&quot;&gt;Supermercado&amp;nbsp;&lt;/font&gt;" style="rounded=0;whiteSpace=wrap;html=1;" parent="1" vertex="1">
          <mxGeometry x="540" y="200" width="80" height="20" as="geometry" />
        </mxCell>
        <mxCell id="6wXl4NRj1OaEJzUZebUB-35" value="" style="endArrow=none;html=1;entryX=1;entryY=1;entryDx=0;entryDy=0;" parent="1" target="6wXl4NRj1OaEJzUZebUB-18" edge="1">
          <mxGeometry width="50" height="50" relative="1" as="geometry">
            <mxPoint x="359" y="390" as="sourcePoint" />
            <mxPoint x="360" y="360" as="targetPoint" />
          </mxGeometry>
        </mxCell>
        <mxCell id="6wXl4NRj1OaEJzUZebUB-37" value="" style="endArrow=none;html=1;exitX=0.5;exitY=0;exitDx=0;exitDy=0;" parent="1" source="6wXl4NRj1OaEJzUZebUB-5" edge="1">
          <mxGeometry width="50" height="50" relative="1" as="geometry">
            <mxPoint x="50" y="260" as="sourcePoint" />
            <mxPoint x="100" y="210" as="targetPoint" />
          </mxGeometry>
        </mxCell>
        <mxCell id="6wXl4NRj1OaEJzUZebUB-49" value="&lt;font face=&quot;Times New Roman&quot;&gt;Rua&lt;/font&gt;" style="ellipse;whiteSpace=wrap;html=1;" parent="1" vertex="1">
          <mxGeometry x="-20" y="310" width="30" height="20" as="geometry" />
        </mxCell>
        <mxCell id="6wXl4NRj1OaEJzUZebUB-50" value="&lt;font face=&quot;Times New Roman&quot;&gt;Bairro&lt;/font&gt;" style="ellipse;whiteSpace=wrap;html=1;" parent="1" vertex="1">
          <mxGeometry y="350" width="40" height="40" as="geometry" />
        </mxCell>
        <mxCell id="6wXl4NRj1OaEJzUZebUB-54" value="" style="endArrow=none;html=1;exitX=0.5;exitY=1;exitDx=0;exitDy=0;entryX=0.5;entryY=0;entryDx=0;entryDy=0;" parent="1" source="ZF-4dj9gneZ3DAIQ6NbV-5" target="6wXl4NRj1OaEJzUZebUB-50" edge="1">
          <mxGeometry width="50" height="50" relative="1" as="geometry">
            <mxPoint x="60" y="50" as="sourcePoint" />
            <mxPoint x="30" y="350" as="targetPoint" />
          </mxGeometry>
        </mxCell>
        <mxCell id="6wXl4NRj1OaEJzUZebUB-58" value="&lt;font face=&quot;Times New Roman&quot;&gt;Endereço&amp;nbsp;&lt;/font&gt;" style="ellipse;whiteSpace=wrap;html=1;" parent="1" vertex="1">
          <mxGeometry x="510" y="240" width="60" height="30" as="geometry" />
        </mxCell>
        <mxCell id="6wXl4NRj1OaEJzUZebUB-59" value="&lt;font face=&quot;Times New Roman&quot;&gt;CNPJ&lt;/font&gt;" style="ellipse;whiteSpace=wrap;html=1;" parent="1" vertex="1">
          <mxGeometry x="565" y="280" width="35" height="30" as="geometry" />
        </mxCell>
        <mxCell id="6wXl4NRj1OaEJzUZebUB-60" value="&lt;font face=&quot;Times New Roman&quot;&gt;Nome&lt;/font&gt;" style="ellipse;whiteSpace=wrap;html=1;" parent="1" vertex="1">
          <mxGeometry x="600" y="235" width="50" height="30" as="geometry" />
        </mxCell>
        <mxCell id="6wXl4NRj1OaEJzUZebUB-65" value="" style="endArrow=none;html=1;entryX=0.5;entryY=1;entryDx=0;entryDy=0;exitX=0.429;exitY=0;exitDx=0;exitDy=0;exitPerimeter=0;" parent="1" source="6wXl4NRj1OaEJzUZebUB-59" target="6wXl4NRj1OaEJzUZebUB-30" edge="1">
          <mxGeometry width="50" height="50" relative="1" as="geometry">
            <mxPoint x="570" y="270" as="sourcePoint" />
            <mxPoint x="620" y="220" as="targetPoint" />
          </mxGeometry>
        </mxCell>
        <mxCell id="6wXl4NRj1OaEJzUZebUB-66" value="" style="endArrow=none;html=1;entryX=0;entryY=1;entryDx=0;entryDy=0;exitX=0.5;exitY=0;exitDx=0;exitDy=0;" parent="1" source="6wXl4NRj1OaEJzUZebUB-58" target="6wXl4NRj1OaEJzUZebUB-30" edge="1">
          <mxGeometry width="50" height="50" relative="1" as="geometry">
            <mxPoint x="550" y="270" as="sourcePoint" />
            <mxPoint x="600" y="220" as="targetPoint" />
          </mxGeometry>
        </mxCell>
        <mxCell id="6wXl4NRj1OaEJzUZebUB-67" value="" style="endArrow=none;html=1;exitX=0;exitY=0.5;exitDx=0;exitDy=0;" parent="1" source="ZF-4dj9gneZ3DAIQ6NbV-5" edge="1">
          <mxGeometry width="50" height="50" relative="1" as="geometry">
            <mxPoint x="17.5" y="50" as="sourcePoint" />
            <mxPoint x="-6" y="310" as="targetPoint" />
            <Array as="points" />
          </mxGeometry>
        </mxCell>
        <mxCell id="6wXl4NRj1OaEJzUZebUB-68" value="" style="endArrow=none;html=1;exitX=1;exitY=1;exitDx=0;exitDy=0;" parent="1" source="6wXl4NRj1OaEJzUZebUB-51" edge="1">
          <mxGeometry width="50" height="50" relative="1" as="geometry">
            <mxPoint x="50" y="270" as="sourcePoint" />
            <mxPoint x="38" y="330" as="targetPoint" />
          </mxGeometry>
        </mxCell>
        <mxCell id="6wXl4NRj1OaEJzUZebUB-69" value="" style="endArrow=none;html=1;entryX=0;entryY=1;entryDx=0;entryDy=0;" parent="1" target="6wXl4NRj1OaEJzUZebUB-18" edge="1">
          <mxGeometry width="50" height="50" relative="1" as="geometry">
            <mxPoint x="280" y="380" as="sourcePoint" />
            <mxPoint x="330" y="360" as="targetPoint" />
          </mxGeometry>
        </mxCell>
        <mxCell id="PSi9UvxMVIn8nsfbkCFn-1" value="&lt;font face=&quot;Times New Roman&quot; style=&quot;font-size: 12px&quot;&gt;Valor&lt;br&gt;Mín.&lt;/font&gt;" style="ellipse;whiteSpace=wrap;html=1;" parent="1" vertex="1">
          <mxGeometry x="255.62" y="-8" width="49.58" height="30" as="geometry" />
        </mxCell>
        <mxCell id="PSi9UvxMVIn8nsfbkCFn-2" value="&lt;font face=&quot;Times New Roman&quot;&gt;Valor&lt;br&gt;Máx.&lt;/font&gt;" style="ellipse;whiteSpace=wrap;html=1;" parent="1" vertex="1">
          <mxGeometry x="335" y="-8" width="50" height="30" as="geometry" />
        </mxCell>
        <mxCell id="PSi9UvxMVIn8nsfbkCFn-4" value="" style="endArrow=none;html=1;entryX=0.5;entryY=1;entryDx=0;entryDy=0;exitX=1;exitY=0;exitDx=0;exitDy=0;" parent="1" source="6wXl4NRj1OaEJzUZebUB-28" target="PSi9UvxMVIn8nsfbkCFn-2" edge="1">
          <mxGeometry width="50" height="50" relative="1" as="geometry">
            <mxPoint x="350" y="60" as="sourcePoint" />
            <mxPoint x="400" y="10" as="targetPoint" />
          </mxGeometry>
        </mxCell>
        <mxCell id="PSi9UvxMVIn8nsfbkCFn-5" value="" style="endArrow=none;html=1;entryX=0.5;entryY=1;entryDx=0;entryDy=0;exitX=0;exitY=0;exitDx=0;exitDy=0;" parent="1" source="6wXl4NRj1OaEJzUZebUB-28" target="PSi9UvxMVIn8nsfbkCFn-1" edge="1">
          <mxGeometry width="50" height="50" relative="1" as="geometry">
            <mxPoint x="300" y="60" as="sourcePoint" />
            <mxPoint x="350" y="10" as="targetPoint" />
          </mxGeometry>
        </mxCell>
        <mxCell id="ZF-4dj9gneZ3DAIQ6NbV-1" value="" style="endArrow=none;html=1;exitX=1;exitY=0.5;exitDx=0;exitDy=0;" parent="1" source="6wXl4NRj1OaEJzUZebUB-4" edge="1">
          <mxGeometry width="50" height="50" relative="1" as="geometry">
            <mxPoint x="-30" y="260" as="sourcePoint" />
            <mxPoint x="20" y="210" as="targetPoint" />
          </mxGeometry>
        </mxCell>
        <mxCell id="ZF-4dj9gneZ3DAIQ6NbV-2" value="" style="endArrow=none;html=1;exitX=0.5;exitY=0;exitDx=0;exitDy=0;entryX=0.5;entryY=1;entryDx=0;entryDy=0;" parent="1" source="6wXl4NRj1OaEJzUZebUB-6" target="6wXl4NRj1OaEJzUZebUB-2" edge="1">
          <mxGeometry width="50" height="50" relative="1" as="geometry">
            <mxPoint x="70" y="230" as="sourcePoint" />
            <mxPoint x="120" y="180" as="targetPoint" />
          </mxGeometry>
        </mxCell>
        <mxCell id="ZF-4dj9gneZ3DAIQ6NbV-5" value="&lt;font face=&quot;Times New Roman&quot;&gt;Endereço&amp;nbsp;&lt;/font&gt;" style="ellipse;whiteSpace=wrap;html=1;" parent="1" vertex="1">
          <mxGeometry x="-5" y="260" width="50" height="30" as="geometry" />
        </mxCell>
        <mxCell id="ZF-4dj9gneZ3DAIQ6NbV-6" value="" style="endArrow=none;html=1;" parent="1" edge="1">
          <mxGeometry width="50" height="50" relative="1" as="geometry">
            <mxPoint x="20" y="260" as="sourcePoint" />
            <mxPoint x="20" y="220" as="targetPoint" />
            <Array as="points" />
          </mxGeometry>
        </mxCell>
        <mxCell id="6wXl4NRj1OaEJzUZebUB-51" value="&lt;font face=&quot;Times New Roman&quot;&gt;CEP&lt;/font&gt;" style="ellipse;whiteSpace=wrap;html=1;" parent="1" vertex="1">
          <mxGeometry x="30" y="320" width="30" height="20" as="geometry" />
        </mxCell>
        <mxCell id="ZF-4dj9gneZ3DAIQ6NbV-7" value="" style="endArrow=none;html=1;exitX=1;exitY=1;exitDx=0;exitDy=0;" parent="1" source="ZF-4dj9gneZ3DAIQ6NbV-5" target="6wXl4NRj1OaEJzUZebUB-51" edge="1">
          <mxGeometry width="50" height="50" relative="1" as="geometry">
            <mxPoint x="37.609284725957195" y="285.64747448546245" as="sourcePoint" />
            <mxPoint x="38" y="330" as="targetPoint" />
          </mxGeometry>
        </mxCell>
        <mxCell id="ZF-4dj9gneZ3DAIQ6NbV-61" value="" style="edgeStyle=entityRelationEdgeStyle;fontSize=12;html=1;endArrow=ERoneToMany;startArrow=ERzeroToOne;" parent="1" edge="1">
          <mxGeometry width="100" height="100" relative="1" as="geometry">
            <mxPoint x="20" y="-60" as="sourcePoint" />
            <mxPoint x="200" y="-60" as="targetPoint" />
          </mxGeometry>
        </mxCell>
        <mxCell id="2kxfIkAudoraunP22ZUa-8" value="" style="edgeStyle=entityRelationEdgeStyle;fontSize=12;html=1;endArrow=ERoneToMany;startArrow=ERzeroToOne;entryX=0.5;entryY=1;entryDx=0;entryDy=0;exitX=0.5;exitY=0;exitDx=0;exitDy=0;" edge="1" parent="1" source="6wXl4NRj1OaEJzUZebUB-18" target="6wXl4NRj1OaEJzUZebUB-16">
          <mxGeometry width="100" height="100" relative="1" as="geometry">
            <mxPoint x="350" y="350" as="sourcePoint" />
            <mxPoint x="450" y="250" as="targetPoint" />
          </mxGeometry>
        </mxCell>
        <mxCell id="6wXl4NRj1OaEJzUZebUB-17" value="&lt;font face=&quot;Times New Roman&quot;&gt;Cadastro&lt;/font&gt;" style="rhombus;whiteSpace=wrap;html=1;" parent="1" vertex="1">
          <mxGeometry x="279.17" y="240" width="80" height="80" as="geometry" />
        </mxCell>
        <mxCell id="2kxfIkAudoraunP22ZUa-9" value="" style="edgeStyle=entityRelationEdgeStyle;fontSize=12;html=1;endArrow=ERoneToMany;startArrow=ERoneToMany;exitX=0.5;exitY=0;exitDx=0;exitDy=0;entryX=0.5;entryY=1;entryDx=0;entryDy=0;" edge="1" parent="1" source="6wXl4NRj1OaEJzUZebUB-16" target="6wXl4NRj1OaEJzUZebUB-28">
          <mxGeometry width="100" height="100" relative="1" as="geometry">
            <mxPoint x="350" y="180" as="sourcePoint" />
            <mxPoint x="450" y="80" as="targetPoint" />
          </mxGeometry>
        </mxCell>
        <mxCell id="6wXl4NRj1OaEJzUZebUB-27" value="&lt;font face=&quot;Times New Roman&quot;&gt;Categoria&lt;/font&gt;" style="rhombus;whiteSpace=wrap;html=1;" parent="1" vertex="1">
          <mxGeometry x="279.17" y="90" width="80" height="80" as="geometry" />
        </mxCell>
      </root>
    </mxGraphModel>
  </diagram>
</mxfile>
